<?xml version='1.0' encoding='UTF-8'?>
<svg xmlns:svg="http://www.w3.org/2000/svg" width="164mm" height="164mm" version="1.1" xmlns="http://www.w3.org/2000/svg"><svg:rect x="16mm" y="16mm" width="4mm" height="4mm" /><svg:rect x="20mm" y="16mm" width="4mm" height="4mm" /><svg:rect x="24mm" y="16mm" width="4mm" height="4mm" /><svg:rect x="28mm" y="16mm" width="4mm" height="4mm" /><svg:rect x="32mm" y="16mm" width="4mm" height="4mm" /><svg:rect x="36mm" y="16mm" width="4mm" height="4mm" /><svg:rect x="40mm" y="16mm" width="4mm" height="4mm" /><svg:rect x="56mm" y="16mm" width="4mm" height="4mm" /><svg:rect x="60mm" y="16mm" width="4mm" height="4mm" /><svg:rect x="68mm" y="16mm" width="4mm" height="4mm" /><svg:rect x="72mm" y="16mm" width="4mm" height="4mm" /><svg:rect x="80mm" y="16mm" width="4mm" height="4mm" /><svg:rect x="84mm" y="16mm" width="4mm" height="4mm" /><svg:rect x="120mm" y="16mm" width="4mm" height="4mm" /><svg:rect x="124mm" y="16mm" width="4mm" height="4mm" /><svg:rect x="128mm" y="16mm" width="4mm" height="4mm" /><svg:rect x="132mm" y="16mm" width="4mm" height="4mm" /><svg:rect x="136mm" y="16mm" width="4mm" height="4mm" /><svg:rect x="140mm" y="16mm" width="4mm" height="4mm" /><svg:rect x="144mm" y="16mm" width="4mm" height="4mm" /><svg:rect x="16mm" y="20mm" width="4mm" height="4mm" /><svg:rect x="40mm" y="20mm" width="4mm" height="4mm" /><svg:rect x="48mm" y="20mm" width="4mm" height="4mm" /><svg:rect x="80mm" y="20mm" width="4mm" height="4mm" /><svg:rect x="88mm" y="20mm" width="4mm" height="4mm" /><svg:rect x="96mm" y="20mm" width="4mm" height="4mm" /><svg:rect x="120mm" y="20mm" width="4mm" height="4mm" /><svg:rect x="144mm" y="20mm" width="4mm" height="4mm" /><svg:rect x="16mm" y="24mm" width="4mm" height="4mm" /><svg:rect x="24mm" y="24mm" width="4mm" height="4mm" /><svg:rect x="28mm" y="24mm" width="4mm" height="4mm" /><svg:rect x="32mm" y="24mm" width="4mm" height="4mm" /><svg:rect x="40mm" y="24mm" width="4mm" height="4mm" /><svg:rect x="48mm" y="24mm" width="4mm" height="4mm" /><svg:rect x="52mm" y="24mm" width="4mm" height="4mm" /><svg:rect x="56mm" y="24mm" width="4mm" height="4mm" /><svg:rect x="72mm" y="24mm" width="4mm" height="4mm" /><svg:rect x="96mm" y="24mm" width="4mm" height="4mm" /><svg:rect x="100mm" y="24mm" width="4mm" height="4mm" /><svg:rect x="108mm" y="24mm" width="4mm" height="4mm" /><svg:rect x="120mm" y="24mm" width="4mm" height="4mm" /><svg:rect x="128mm" y="24mm" width="4mm" height="4mm" /><svg:rect x="132mm" y="24mm" width="4mm" height="4mm" /><svg:rect x="136mm" y="24mm" width="4mm" height="4mm" /><svg:rect x="144mm" y="24mm" width="4mm" height="4mm" /><svg:rect x="16mm" y="28mm" width="4mm" height="4mm" /><svg:rect x="24mm" y="28mm" width="4mm" height="4mm" /><svg:rect x="28mm" y="28mm" width="4mm" height="4mm" /><svg:rect x="32mm" y="28mm" width="4mm" height="4mm" /><svg:rect x="40mm" y="28mm" width="4mm" height="4mm" /><svg:rect x="48mm" y="28mm" width="4mm" height="4mm" /><svg:rect x="52mm" y="28mm" width="4mm" height="4mm" /><svg:rect x="64mm" y="28mm" width="4mm" height="4mm" /><svg:rect x="72mm" y="28mm" width="4mm" height="4mm" /><svg:rect x="80mm" y="28mm" width="4mm" height="4mm" /><svg:rect x="88mm" y="28mm" width="4mm" height="4mm" /><svg:rect x="96mm" y="28mm" width="4mm" height="4mm" /><svg:rect x="100mm" y="28mm" width="4mm" height="4mm" /><svg:rect x="108mm" y="28mm" width="4mm" height="4mm" /><svg:rect x="120mm" y="28mm" width="4mm" height="4mm" /><svg:rect x="128mm" y="28mm" width="4mm" height="4mm" /><svg:rect x="132mm" y="28mm" width="4mm" height="4mm" /><svg:rect x="136mm" y="28mm" width="4mm" height="4mm" /><svg:rect x="144mm" y="28mm" width="4mm" height="4mm" /><svg:rect x="16mm" y="32mm" width="4mm" height="4mm" /><svg:rect x="24mm" y="32mm" width="4mm" height="4mm" /><svg:rect x="28mm" y="32mm" width="4mm" height="4mm" /><svg:rect x="32mm" y="32mm" width="4mm" height="4mm" /><svg:rect x="40mm" y="32mm" width="4mm" height="4mm" /><svg:rect x="60mm" y="32mm" width="4mm" height="4mm" /><svg:rect x="64mm" y="32mm" width="4mm" height="4mm" /><svg:rect x="68mm" y="32mm" width="4mm" height="4mm" /><svg:rect x="72mm" y="32mm" width="4mm" height="4mm" /><svg:rect x="76mm" y="32mm" width="4mm" height="4mm" /><svg:rect x="80mm" y="32mm" width="4mm" height="4mm" /><svg:rect x="96mm" y="32mm" width="4mm" height="4mm" /><svg:rect x="100mm" y="32mm" width="4mm" height="4mm" /><svg:rect x="108mm" y="32mm" width="4mm" height="4mm" /><svg:rect x="120mm" y="32mm" width="4mm" height="4mm" /><svg:rect x="128mm" y="32mm" width="4mm" height="4mm" /><svg:rect x="132mm" y="32mm" width="4mm" height="4mm" /><svg:rect x="136mm" y="32mm" width="4mm" height="4mm" /><svg:rect x="144mm" y="32mm" width="4mm" height="4mm" /><svg:rect x="16mm" y="36mm" width="4mm" height="4mm" /><svg:rect x="40mm" y="36mm" width="4mm" height="4mm" /><svg:rect x="68mm" y="36mm" width="4mm" height="4mm" /><svg:rect x="72mm" y="36mm" width="4mm" height="4mm" /><svg:rect x="76mm" y="36mm" width="4mm" height="4mm" /><svg:rect x="84mm" y="36mm" width="4mm" height="4mm" /><svg:rect x="92mm" y="36mm" width="4mm" height="4mm" /><svg:rect x="100mm" y="36mm" width="4mm" height="4mm" /><svg:rect x="112mm" y="36mm" width="4mm" height="4mm" /><svg:rect x="120mm" y="36mm" width="4mm" height="4mm" /><svg:rect x="144mm" y="36mm" width="4mm" height="4mm" /><svg:rect x="16mm" y="40mm" width="4mm" height="4mm" /><svg:rect x="20mm" y="40mm" width="4mm" height="4mm" /><svg:rect x="24mm" y="40mm" width="4mm" height="4mm" /><svg:rect x="28mm" y="40mm" width="4mm" height="4mm" /><svg:rect x="32mm" y="40mm" width="4mm" height="4mm" /><svg:rect x="36mm" y="40mm" width="4mm" height="4mm" /><svg:rect x="40mm" y="40mm" width="4mm" height="4mm" /><svg:rect x="48mm" y="40mm" width="4mm" height="4mm" /><svg:rect x="56mm" y="40mm" width="4mm" height="4mm" /><svg:rect x="64mm" y="40mm" width="4mm" height="4mm" /><svg:rect x="72mm" y="40mm" width="4mm" height="4mm" /><svg:rect x="80mm" y="40mm" width="4mm" height="4mm" /><svg:rect x="88mm" y="40mm" width="4mm" height="4mm" /><svg:rect x="96mm" y="40mm" width="4mm" height="4mm" /><svg:rect x="104mm" y="40mm" width="4mm" height="4mm" /><svg:rect x="112mm" y="40mm" width="4mm" height="4mm" /><svg:rect x="120mm" y="40mm" width="4mm" height="4mm" /><svg:rect x="124mm" y="40mm" width="4mm" height="4mm" /><svg:rect x="128mm" y="40mm" width="4mm" height="4mm" /><svg:rect x="132mm" y="40mm" width="4mm" height="4mm" /><svg:rect x="136mm" y="40mm" width="4mm" height="4mm" /><svg:rect x="140mm" y="40mm" width="4mm" height="4mm" /><svg:rect x="144mm" y="40mm" width="4mm" height="4mm" /><svg:rect x="48mm" y="44mm" width="4mm" height="4mm" /><svg:rect x="64mm" y="44mm" width="4mm" height="4mm" /><svg:rect x="76mm" y="44mm" width="4mm" height="4mm" /><svg:rect x="80mm" y="44mm" width="4mm" height="4mm" /><svg:rect x="92mm" y="44mm" width="4mm" height="4mm" /><svg:rect x="96mm" y="44mm" width="4mm" height="4mm" /><svg:rect x="112mm" y="44mm" width="4mm" height="4mm" /><svg:rect x="16mm" y="48mm" width="4mm" height="4mm" /><svg:rect x="40mm" y="48mm" width="4mm" height="4mm" /><svg:rect x="48mm" y="48mm" width="4mm" height="4mm" /><svg:rect x="68mm" y="48mm" width="4mm" height="4mm" /><svg:rect x="72mm" y="48mm" width="4mm" height="4mm" /><svg:rect x="80mm" y="48mm" width="4mm" height="4mm" /><svg:rect x="84mm" y="48mm" width="4mm" height="4mm" /><svg:rect x="92mm" y="48mm" width="4mm" height="4mm" /><svg:rect x="104mm" y="48mm" width="4mm" height="4mm" /><svg:rect x="108mm" y="48mm" width="4mm" height="4mm" /><svg:rect x="112mm" y="48mm" width="4mm" height="4mm" /><svg:rect x="116mm" y="48mm" width="4mm" height="4mm" /><svg:rect x="120mm" y="48mm" width="4mm" height="4mm" /><svg:rect x="132mm" y="48mm" width="4mm" height="4mm" /><svg:rect x="136mm" y="48mm" width="4mm" height="4mm" /><svg:rect x="140mm" y="48mm" width="4mm" height="4mm" /><svg:rect x="24mm" y="52mm" width="4mm" height="4mm" /><svg:rect x="28mm" y="52mm" width="4mm" height="4mm" /><svg:rect x="32mm" y="52mm" width="4mm" height="4mm" /><svg:rect x="44mm" y="52mm" width="4mm" height="4mm" /><svg:rect x="52mm" y="52mm" width="4mm" height="4mm" /><svg:rect x="56mm" y="52mm" width="4mm" height="4mm" /><svg:rect x="60mm" y="52mm" width="4mm" height="4mm" /><svg:rect x="68mm" y="52mm" width="4mm" height="4mm" /><svg:rect x="72mm" y="52mm" width="4mm" height="4mm" /><svg:rect x="76mm" y="52mm" width="4mm" height="4mm" /><svg:rect x="84mm" y="52mm" width="4mm" height="4mm" /><svg:rect x="88mm" y="52mm" width="4mm" height="4mm" /><svg:rect x="92mm" y="52mm" width="4mm" height="4mm" /><svg:rect x="100mm" y="52mm" width="4mm" height="4mm" /><svg:rect x="104mm" y="52mm" width="4mm" height="4mm" /><svg:rect x="108mm" y="52mm" width="4mm" height="4mm" /><svg:rect x="128mm" y="52mm" width="4mm" height="4mm" /><svg:rect x="132mm" y="52mm" width="4mm" height="4mm" /><svg:rect x="136mm" y="52mm" width="4mm" height="4mm" /><svg:rect x="24mm" y="56mm" width="4mm" height="4mm" /><svg:rect x="28mm" y="56mm" width="4mm" height="4mm" /><svg:rect x="40mm" y="56mm" width="4mm" height="4mm" /><svg:rect x="44mm" y="56mm" width="4mm" height="4mm" /><svg:rect x="52mm" y="56mm" width="4mm" height="4mm" /><svg:rect x="56mm" y="56mm" width="4mm" height="4mm" /><svg:rect x="64mm" y="56mm" width="4mm" height="4mm" /><svg:rect x="68mm" y="56mm" width="4mm" height="4mm" /><svg:rect x="72mm" y="56mm" width="4mm" height="4mm" /><svg:rect x="76mm" y="56mm" width="4mm" height="4mm" /><svg:rect x="80mm" y="56mm" width="4mm" height="4mm" /><svg:rect x="84mm" y="56mm" width="4mm" height="4mm" /><svg:rect x="100mm" y="56mm" width="4mm" height="4mm" /><svg:rect x="116mm" y="56mm" width="4mm" height="4mm" /><svg:rect x="120mm" y="56mm" width="4mm" height="4mm" /><svg:rect x="128mm" y="56mm" width="4mm" height="4mm" /><svg:rect x="136mm" y="56mm" width="4mm" height="4mm" /><svg:rect x="16mm" y="60mm" width="4mm" height="4mm" /><svg:rect x="24mm" y="60mm" width="4mm" height="4mm" /><svg:rect x="28mm" y="60mm" width="4mm" height="4mm" /><svg:rect x="32mm" y="60mm" width="4mm" height="4mm" /><svg:rect x="36mm" y="60mm" width="4mm" height="4mm" /><svg:rect x="44mm" y="60mm" width="4mm" height="4mm" /><svg:rect x="56mm" y="60mm" width="4mm" height="4mm" /><svg:rect x="68mm" y="60mm" width="4mm" height="4mm" /><svg:rect x="80mm" y="60mm" width="4mm" height="4mm" /><svg:rect x="84mm" y="60mm" width="4mm" height="4mm" /><svg:rect x="88mm" y="60mm" width="4mm" height="4mm" /><svg:rect x="92mm" y="60mm" width="4mm" height="4mm" /><svg:rect x="104mm" y="60mm" width="4mm" height="4mm" /><svg:rect x="108mm" y="60mm" width="4mm" height="4mm" /><svg:rect x="116mm" y="60mm" width="4mm" height="4mm" /><svg:rect x="120mm" y="60mm" width="4mm" height="4mm" /><svg:rect x="124mm" y="60mm" width="4mm" height="4mm" /><svg:rect x="128mm" y="60mm" width="4mm" height="4mm" /><svg:rect x="132mm" y="60mm" width="4mm" height="4mm" /><svg:rect x="136mm" y="60mm" width="4mm" height="4mm" /><svg:rect x="16mm" y="64mm" width="4mm" height="4mm" /><svg:rect x="24mm" y="64mm" width="4mm" height="4mm" /><svg:rect x="32mm" y="64mm" width="4mm" height="4mm" /><svg:rect x="40mm" y="64mm" width="4mm" height="4mm" /><svg:rect x="44mm" y="64mm" width="4mm" height="4mm" /><svg:rect x="48mm" y="64mm" width="4mm" height="4mm" /><svg:rect x="56mm" y="64mm" width="4mm" height="4mm" /><svg:rect x="60mm" y="64mm" width="4mm" height="4mm" /><svg:rect x="64mm" y="64mm" width="4mm" height="4mm" /><svg:rect x="68mm" y="64mm" width="4mm" height="4mm" /><svg:rect x="76mm" y="64mm" width="4mm" height="4mm" /><svg:rect x="84mm" y="64mm" width="4mm" height="4mm" /><svg:rect x="92mm" y="64mm" width="4mm" height="4mm" /><svg:rect x="108mm" y="64mm" width="4mm" height="4mm" /><svg:rect x="120mm" y="64mm" width="4mm" height="4mm" /><svg:rect x="144mm" y="64mm" width="4mm" height="4mm" /><svg:rect x="16mm" y="68mm" width="4mm" height="4mm" /><svg:rect x="36mm" y="68mm" width="4mm" height="4mm" /><svg:rect x="44mm" y="68mm" width="4mm" height="4mm" /><svg:rect x="56mm" y="68mm" width="4mm" height="4mm" /><svg:rect x="88mm" y="68mm" width="4mm" height="4mm" /><svg:rect x="100mm" y="68mm" width="4mm" height="4mm" /><svg:rect x="104mm" y="68mm" width="4mm" height="4mm" /><svg:rect x="108mm" y="68mm" width="4mm" height="4mm" /><svg:rect x="116mm" y="68mm" width="4mm" height="4mm" /><svg:rect x="120mm" y="68mm" width="4mm" height="4mm" /><svg:rect x="132mm" y="68mm" width="4mm" height="4mm" /><svg:rect x="140mm" y="68mm" width="4mm" height="4mm" /><svg:rect x="144mm" y="68mm" width="4mm" height="4mm" /><svg:rect x="16mm" y="72mm" width="4mm" height="4mm" /><svg:rect x="20mm" y="72mm" width="4mm" height="4mm" /><svg:rect x="28mm" y="72mm" width="4mm" height="4mm" /><svg:rect x="40mm" y="72mm" width="4mm" height="4mm" /><svg:rect x="44mm" y="72mm" width="4mm" height="4mm" /><svg:rect x="48mm" y="72mm" width="4mm" height="4mm" /><svg:rect x="52mm" y="72mm" width="4mm" height="4mm" /><svg:rect x="56mm" y="72mm" width="4mm" height="4mm" /><svg:rect x="60mm" y="72mm" width="4mm" height="4mm" /><svg:rect x="68mm" y="72mm" width="4mm" height="4mm" /><svg:rect x="72mm" y="72mm" width="4mm" height="4mm" /><svg:rect x="76mm" y="72mm" width="4mm" height="4mm" /><svg:rect x="80mm" y="72mm" width="4mm" height="4mm" /><svg:rect x="96mm" y="72mm" width="4mm" height="4mm" /><svg:rect x="116mm" y="72mm" width="4mm" height="4mm" /><svg:rect x="120mm" y="72mm" width="4mm" height="4mm" /><svg:rect x="124mm" y="72mm" width="4mm" height="4mm" /><svg:rect x="128mm" y="72mm" width="4mm" height="4mm" /><svg:rect x="132mm" y="72mm" width="4mm" height="4mm" /><svg:rect x="140mm" y="72mm" width="4mm" height="4mm" /><svg:rect x="16mm" y="76mm" width="4mm" height="4mm" /><svg:rect x="20mm" y="76mm" width="4mm" height="4mm" /><svg:rect x="24mm" y="76mm" width="4mm" height="4mm" /><svg:rect x="28mm" y="76mm" width="4mm" height="4mm" /><svg:rect x="32mm" y="76mm" width="4mm" height="4mm" /><svg:rect x="64mm" y="76mm" width="4mm" height="4mm" /><svg:rect x="68mm" y="76mm" width="4mm" height="4mm" /><svg:rect x="80mm" y="76mm" width="4mm" height="4mm" /><svg:rect x="96mm" y="76mm" width="4mm" height="4mm" /><svg:rect x="116mm" y="76mm" width="4mm" height="4mm" /><svg:rect x="124mm" y="76mm" width="4mm" height="4mm" /><svg:rect x="132mm" y="76mm" width="4mm" height="4mm" /><svg:rect x="136mm" y="76mm" width="4mm" height="4mm" /><svg:rect x="144mm" y="76mm" width="4mm" height="4mm" /><svg:rect x="16mm" y="80mm" width="4mm" height="4mm" /><svg:rect x="24mm" y="80mm" width="4mm" height="4mm" /><svg:rect x="28mm" y="80mm" width="4mm" height="4mm" /><svg:rect x="32mm" y="80mm" width="4mm" height="4mm" /><svg:rect x="40mm" y="80mm" width="4mm" height="4mm" /><svg:rect x="44mm" y="80mm" width="4mm" height="4mm" /><svg:rect x="48mm" y="80mm" width="4mm" height="4mm" /><svg:rect x="52mm" y="80mm" width="4mm" height="4mm" /><svg:rect x="60mm" y="80mm" width="4mm" height="4mm" /><svg:rect x="64mm" y="80mm" width="4mm" height="4mm" /><svg:rect x="68mm" y="80mm" width="4mm" height="4mm" /><svg:rect x="72mm" y="80mm" width="4mm" height="4mm" /><svg:rect x="76mm" y="80mm" width="4mm" height="4mm" /><svg:rect x="84mm" y="80mm" width="4mm" height="4mm" /><svg:rect x="96mm" y="80mm" width="4mm" height="4mm" /><svg:rect x="108mm" y="80mm" width="4mm" height="4mm" /><svg:rect x="116mm" y="80mm" width="4mm" height="4mm" /><svg:rect x="124mm" y="80mm" width="4mm" height="4mm" /><svg:rect x="128mm" y="80mm" width="4mm" height="4mm" /><svg:rect x="144mm" y="80mm" width="4mm" height="4mm" /><svg:rect x="20mm" y="84mm" width="4mm" height="4mm" /><svg:rect x="32mm" y="84mm" width="4mm" height="4mm" /><svg:rect x="48mm" y="84mm" width="4mm" height="4mm" /><svg:rect x="64mm" y="84mm" width="4mm" height="4mm" /><svg:rect x="68mm" y="84mm" width="4mm" height="4mm" /><svg:rect x="76mm" y="84mm" width="4mm" height="4mm" /><svg:rect x="80mm" y="84mm" width="4mm" height="4mm" /><svg:rect x="88mm" y="84mm" width="4mm" height="4mm" /><svg:rect x="92mm" y="84mm" width="4mm" height="4mm" /><svg:rect x="96mm" y="84mm" width="4mm" height="4mm" /><svg:rect x="108mm" y="84mm" width="4mm" height="4mm" /><svg:rect x="120mm" y="84mm" width="4mm" height="4mm" /><svg:rect x="132mm" y="84mm" width="4mm" height="4mm" /><svg:rect x="136mm" y="84mm" width="4mm" height="4mm" /><svg:rect x="140mm" y="84mm" width="4mm" height="4mm" /><svg:rect x="144mm" y="84mm" width="4mm" height="4mm" /><svg:rect x="16mm" y="88mm" width="4mm" height="4mm" /><svg:rect x="20mm" y="88mm" width="4mm" height="4mm" /><svg:rect x="28mm" y="88mm" width="4mm" height="4mm" /><svg:rect x="36mm" y="88mm" width="4mm" height="4mm" /><svg:rect x="40mm" y="88mm" width="4mm" height="4mm" /><svg:rect x="52mm" y="88mm" width="4mm" height="4mm" /><svg:rect x="56mm" y="88mm" width="4mm" height="4mm" /><svg:rect x="60mm" y="88mm" width="4mm" height="4mm" /><svg:rect x="64mm" y="88mm" width="4mm" height="4mm" /><svg:rect x="72mm" y="88mm" width="4mm" height="4mm" /><svg:rect x="76mm" y="88mm" width="4mm" height="4mm" /><svg:rect x="80mm" y="88mm" width="4mm" height="4mm" /><svg:rect x="84mm" y="88mm" width="4mm" height="4mm" /><svg:rect x="88mm" y="88mm" width="4mm" height="4mm" /><svg:rect x="92mm" y="88mm" width="4mm" height="4mm" /><svg:rect x="108mm" y="88mm" width="4mm" height="4mm" /><svg:rect x="112mm" y="88mm" width="4mm" height="4mm" /><svg:rect x="120mm" y="88mm" width="4mm" height="4mm" /><svg:rect x="124mm" y="88mm" width="4mm" height="4mm" /><svg:rect x="132mm" y="88mm" width="4mm" height="4mm" /><svg:rect x="136mm" y="88mm" width="4mm" height="4mm" /><svg:rect x="144mm" y="88mm" width="4mm" height="4mm" /><svg:rect x="16mm" y="92mm" width="4mm" height="4mm" /><svg:rect x="24mm" y="92mm" width="4mm" height="4mm" /><svg:rect x="32mm" y="92mm" width="4mm" height="4mm" /><svg:rect x="56mm" y="92mm" width="4mm" height="4mm" /><svg:rect x="60mm" y="92mm" width="4mm" height="4mm" /><svg:rect x="64mm" y="92mm" width="4mm" height="4mm" /><svg:rect x="68mm" y="92mm" width="4mm" height="4mm" /><svg:rect x="80mm" y="92mm" width="4mm" height="4mm" /><svg:rect x="96mm" y="92mm" width="4mm" height="4mm" /><svg:rect x="104mm" y="92mm" width="4mm" height="4mm" /><svg:rect x="116mm" y="92mm" width="4mm" height="4mm" /><svg:rect x="128mm" y="92mm" width="4mm" height="4mm" /><svg:rect x="132mm" y="92mm" width="4mm" height="4mm" /><svg:rect x="136mm" y="92mm" width="4mm" height="4mm" /><svg:rect x="140mm" y="92mm" width="4mm" height="4mm" /><svg:rect x="20mm" y="96mm" width="4mm" height="4mm" /><svg:rect x="40mm" y="96mm" width="4mm" height="4mm" /><svg:rect x="48mm" y="96mm" width="4mm" height="4mm" /><svg:rect x="52mm" y="96mm" width="4mm" height="4mm" /><svg:rect x="56mm" y="96mm" width="4mm" height="4mm" /><svg:rect x="64mm" y="96mm" width="4mm" height="4mm" /><svg:rect x="68mm" y="96mm" width="4mm" height="4mm" /><svg:rect x="76mm" y="96mm" width="4mm" height="4mm" /><svg:rect x="88mm" y="96mm" width="4mm" height="4mm" /><svg:rect x="100mm" y="96mm" width="4mm" height="4mm" /><svg:rect x="116mm" y="96mm" width="4mm" height="4mm" /><svg:rect x="124mm" y="96mm" width="4mm" height="4mm" /><svg:rect x="128mm" y="96mm" width="4mm" height="4mm" /><svg:rect x="132mm" y="96mm" width="4mm" height="4mm" /><svg:rect x="140mm" y="96mm" width="4mm" height="4mm" /><svg:rect x="16mm" y="100mm" width="4mm" height="4mm" /><svg:rect x="24mm" y="100mm" width="4mm" height="4mm" /><svg:rect x="36mm" y="100mm" width="4mm" height="4mm" /><svg:rect x="56mm" y="100mm" width="4mm" height="4mm" /><svg:rect x="60mm" y="100mm" width="4mm" height="4mm" /><svg:rect x="64mm" y="100mm" width="4mm" height="4mm" /><svg:rect x="68mm" y="100mm" width="4mm" height="4mm" /><svg:rect x="72mm" y="100mm" width="4mm" height="4mm" /><svg:rect x="100mm" y="100mm" width="4mm" height="4mm" /><svg:rect x="104mm" y="100mm" width="4mm" height="4mm" /><svg:rect x="108mm" y="100mm" width="4mm" height="4mm" /><svg:rect x="112mm" y="100mm" width="4mm" height="4mm" /><svg:rect x="124mm" y="100mm" width="4mm" height="4mm" /><svg:rect x="128mm" y="100mm" width="4mm" height="4mm" /><svg:rect x="132mm" y="100mm" width="4mm" height="4mm" /><svg:rect x="16mm" y="104mm" width="4mm" height="4mm" /><svg:rect x="28mm" y="104mm" width="4mm" height="4mm" /><svg:rect x="36mm" y="104mm" width="4mm" height="4mm" /><svg:rect x="40mm" y="104mm" width="4mm" height="4mm" /><svg:rect x="44mm" y="104mm" width="4mm" height="4mm" /><svg:rect x="52mm" y="104mm" width="4mm" height="4mm" /><svg:rect x="56mm" y="104mm" width="4mm" height="4mm" /><svg:rect x="68mm" y="104mm" width="4mm" height="4mm" /><svg:rect x="84mm" y="104mm" width="4mm" height="4mm" /><svg:rect x="88mm" y="104mm" width="4mm" height="4mm" /><svg:rect x="92mm" y="104mm" width="4mm" height="4mm" /><svg:rect x="104mm" y="104mm" width="4mm" height="4mm" /><svg:rect x="112mm" y="104mm" width="4mm" height="4mm" /><svg:rect x="132mm" y="104mm" width="4mm" height="4mm" /><svg:rect x="136mm" y="104mm" width="4mm" height="4mm" /><svg:rect x="140mm" y="104mm" width="4mm" height="4mm" /><svg:rect x="16mm" y="108mm" width="4mm" height="4mm" /><svg:rect x="24mm" y="108mm" width="4mm" height="4mm" /><svg:rect x="28mm" y="108mm" width="4mm" height="4mm" /><svg:rect x="32mm" y="108mm" width="4mm" height="4mm" /><svg:rect x="60mm" y="108mm" width="4mm" height="4mm" /><svg:rect x="76mm" y="108mm" width="4mm" height="4mm" /><svg:rect x="80mm" y="108mm" width="4mm" height="4mm" /><svg:rect x="88mm" y="108mm" width="4mm" height="4mm" /><svg:rect x="92mm" y="108mm" width="4mm" height="4mm" /><svg:rect x="96mm" y="108mm" width="4mm" height="4mm" /><svg:rect x="116mm" y="108mm" width="4mm" height="4mm" /><svg:rect x="120mm" y="108mm" width="4mm" height="4mm" /><svg:rect x="128mm" y="108mm" width="4mm" height="4mm" /><svg:rect x="132mm" y="108mm" width="4mm" height="4mm" /><svg:rect x="136mm" y="108mm" width="4mm" height="4mm" /><svg:rect x="140mm" y="108mm" width="4mm" height="4mm" /><svg:rect x="144mm" y="108mm" width="4mm" height="4mm" /><svg:rect x="16mm" y="112mm" width="4mm" height="4mm" /><svg:rect x="20mm" y="112mm" width="4mm" height="4mm" /><svg:rect x="24mm" y="112mm" width="4mm" height="4mm" /><svg:rect x="28mm" y="112mm" width="4mm" height="4mm" /><svg:rect x="32mm" y="112mm" width="4mm" height="4mm" /><svg:rect x="40mm" y="112mm" width="4mm" height="4mm" /><svg:rect x="44mm" y="112mm" width="4mm" height="4mm" /><svg:rect x="48mm" y="112mm" width="4mm" height="4mm" /><svg:rect x="60mm" y="112mm" width="4mm" height="4mm" /><svg:rect x="64mm" y="112mm" width="4mm" height="4mm" /><svg:rect x="68mm" y="112mm" width="4mm" height="4mm" /><svg:rect x="72mm" y="112mm" width="4mm" height="4mm" /><svg:rect x="108mm" y="112mm" width="4mm" height="4mm" /><svg:rect x="112mm" y="112mm" width="4mm" height="4mm" /><svg:rect x="116mm" y="112mm" width="4mm" height="4mm" /><svg:rect x="120mm" y="112mm" width="4mm" height="4mm" /><svg:rect x="124mm" y="112mm" width="4mm" height="4mm" /><svg:rect x="128mm" y="112mm" width="4mm" height="4mm" /><svg:rect x="132mm" y="112mm" width="4mm" height="4mm" /><svg:rect x="48mm" y="116mm" width="4mm" height="4mm" /><svg:rect x="52mm" y="116mm" width="4mm" height="4mm" /><svg:rect x="56mm" y="116mm" width="4mm" height="4mm" /><svg:rect x="60mm" y="116mm" width="4mm" height="4mm" /><svg:rect x="64mm" y="116mm" width="4mm" height="4mm" /><svg:rect x="68mm" y="116mm" width="4mm" height="4mm" /><svg:rect x="76mm" y="116mm" width="4mm" height="4mm" /><svg:rect x="80mm" y="116mm" width="4mm" height="4mm" /><svg:rect x="84mm" y="116mm" width="4mm" height="4mm" /><svg:rect x="92mm" y="116mm" width="4mm" height="4mm" /><svg:rect x="96mm" y="116mm" width="4mm" height="4mm" /><svg:rect x="100mm" y="116mm" width="4mm" height="4mm" /><svg:rect x="108mm" y="116mm" width="4mm" height="4mm" /><svg:rect x="112mm" y="116mm" width="4mm" height="4mm" /><svg:rect x="128mm" y="116mm" width="4mm" height="4mm" /><svg:rect x="136mm" y="116mm" width="4mm" height="4mm" /><svg:rect x="144mm" y="116mm" width="4mm" height="4mm" /><svg:rect x="16mm" y="120mm" width="4mm" height="4mm" /><svg:rect x="20mm" y="120mm" width="4mm" height="4mm" /><svg:rect x="24mm" y="120mm" width="4mm" height="4mm" /><svg:rect x="28mm" y="120mm" width="4mm" height="4mm" /><svg:rect x="32mm" y="120mm" width="4mm" height="4mm" /><svg:rect x="36mm" y="120mm" width="4mm" height="4mm" /><svg:rect x="40mm" y="120mm" width="4mm" height="4mm" /><svg:rect x="52mm" y="120mm" width="4mm" height="4mm" /><svg:rect x="60mm" y="120mm" width="4mm" height="4mm" /><svg:rect x="68mm" y="120mm" width="4mm" height="4mm" /><svg:rect x="76mm" y="120mm" width="4mm" height="4mm" /><svg:rect x="80mm" y="120mm" width="4mm" height="4mm" /><svg:rect x="84mm" y="120mm" width="4mm" height="4mm" /><svg:rect x="104mm" y="120mm" width="4mm" height="4mm" /><svg:rect x="108mm" y="120mm" width="4mm" height="4mm" /><svg:rect x="112mm" y="120mm" width="4mm" height="4mm" /><svg:rect x="120mm" y="120mm" width="4mm" height="4mm" /><svg:rect x="128mm" y="120mm" width="4mm" height="4mm" /><svg:rect x="136mm" y="120mm" width="4mm" height="4mm" /><svg:rect x="140mm" y="120mm" width="4mm" height="4mm" /><svg:rect x="16mm" y="124mm" width="4mm" height="4mm" /><svg:rect x="40mm" y="124mm" width="4mm" height="4mm" /><svg:rect x="60mm" y="124mm" width="4mm" height="4mm" /><svg:rect x="64mm" y="124mm" width="4mm" height="4mm" /><svg:rect x="68mm" y="124mm" width="4mm" height="4mm" /><svg:rect x="80mm" y="124mm" width="4mm" height="4mm" /><svg:rect x="84mm" y="124mm" width="4mm" height="4mm" /><svg:rect x="88mm" y="124mm" width="4mm" height="4mm" /><svg:rect x="92mm" y="124mm" width="4mm" height="4mm" /><svg:rect x="96mm" y="124mm" width="4mm" height="4mm" /><svg:rect x="100mm" y="124mm" width="4mm" height="4mm" /><svg:rect x="104mm" y="124mm" width="4mm" height="4mm" /><svg:rect x="108mm" y="124mm" width="4mm" height="4mm" /><svg:rect x="112mm" y="124mm" width="4mm" height="4mm" /><svg:rect x="128mm" y="124mm" width="4mm" height="4mm" /><svg:rect x="132mm" y="124mm" width="4mm" height="4mm" /><svg:rect x="136mm" y="124mm" width="4mm" height="4mm" /><svg:rect x="16mm" y="128mm" width="4mm" height="4mm" /><svg:rect x="24mm" y="128mm" width="4mm" height="4mm" /><svg:rect x="28mm" y="128mm" width="4mm" height="4mm" /><svg:rect x="32mm" y="128mm" width="4mm" height="4mm" /><svg:rect x="40mm" y="128mm" width="4mm" height="4mm" /><svg:rect x="56mm" y="128mm" width="4mm" height="4mm" /><svg:rect x="60mm" y="128mm" width="4mm" height="4mm" /><svg:rect x="64mm" y="128mm" width="4mm" height="4mm" /><svg:rect x="72mm" y="128mm" width="4mm" height="4mm" /><svg:rect x="80mm" y="128mm" width="4mm" height="4mm" /><svg:rect x="92mm" y="128mm" width="4mm" height="4mm" /><svg:rect x="96mm" y="128mm" width="4mm" height="4mm" /><svg:rect x="100mm" y="128mm" width="4mm" height="4mm" /><svg:rect x="104mm" y="128mm" width="4mm" height="4mm" /><svg:rect x="112mm" y="128mm" width="4mm" height="4mm" /><svg:rect x="116mm" y="128mm" width="4mm" height="4mm" /><svg:rect x="120mm" y="128mm" width="4mm" height="4mm" /><svg:rect x="124mm" y="128mm" width="4mm" height="4mm" /><svg:rect x="128mm" y="128mm" width="4mm" height="4mm" /><svg:rect x="132mm" y="128mm" width="4mm" height="4mm" /><svg:rect x="140mm" y="128mm" width="4mm" height="4mm" /><svg:rect x="144mm" y="128mm" width="4mm" height="4mm" /><svg:rect x="16mm" y="132mm" width="4mm" height="4mm" /><svg:rect x="24mm" y="132mm" width="4mm" height="4mm" /><svg:rect x="28mm" y="132mm" width="4mm" height="4mm" /><svg:rect x="32mm" y="132mm" width="4mm" height="4mm" /><svg:rect x="40mm" y="132mm" width="4mm" height="4mm" /><svg:rect x="52mm" y="132mm" width="4mm" height="4mm" /><svg:rect x="64mm" y="132mm" width="4mm" height="4mm" /><svg:rect x="88mm" y="132mm" width="4mm" height="4mm" /><svg:rect x="108mm" y="132mm" width="4mm" height="4mm" /><svg:rect x="112mm" y="132mm" width="4mm" height="4mm" /><svg:rect x="116mm" y="132mm" width="4mm" height="4mm" /><svg:rect x="124mm" y="132mm" width="4mm" height="4mm" /><svg:rect x="128mm" y="132mm" width="4mm" height="4mm" /><svg:rect x="136mm" y="132mm" width="4mm" height="4mm" /><svg:rect x="144mm" y="132mm" width="4mm" height="4mm" /><svg:rect x="16mm" y="136mm" width="4mm" height="4mm" /><svg:rect x="24mm" y="136mm" width="4mm" height="4mm" /><svg:rect x="28mm" y="136mm" width="4mm" height="4mm" /><svg:rect x="32mm" y="136mm" width="4mm" height="4mm" /><svg:rect x="40mm" y="136mm" width="4mm" height="4mm" /><svg:rect x="52mm" y="136mm" width="4mm" height="4mm" /><svg:rect x="64mm" y="136mm" width="4mm" height="4mm" /><svg:rect x="72mm" y="136mm" width="4mm" height="4mm" /><svg:rect x="76mm" y="136mm" width="4mm" height="4mm" /><svg:rect x="88mm" y="136mm" width="4mm" height="4mm" /><svg:rect x="92mm" y="136mm" width="4mm" height="4mm" /><svg:rect x="100mm" y="136mm" width="4mm" height="4mm" /><svg:rect x="104mm" y="136mm" width="4mm" height="4mm" /><svg:rect x="108mm" y="136mm" width="4mm" height="4mm" /><svg:rect x="112mm" y="136mm" width="4mm" height="4mm" /><svg:rect x="116mm" y="136mm" width="4mm" height="4mm" /><svg:rect x="124mm" y="136mm" width="4mm" height="4mm" /><svg:rect x="128mm" y="136mm" width="4mm" height="4mm" /><svg:rect x="136mm" y="136mm" width="4mm" height="4mm" /><svg:rect x="140mm" y="136mm" width="4mm" height="4mm" /><svg:rect x="144mm" y="136mm" width="4mm" height="4mm" /><svg:rect x="16mm" y="140mm" width="4mm" height="4mm" /><svg:rect x="40mm" y="140mm" width="4mm" height="4mm" /><svg:rect x="56mm" y="140mm" width="4mm" height="4mm" /><svg:rect x="60mm" y="140mm" width="4mm" height="4mm" /><svg:rect x="64mm" y="140mm" width="4mm" height="4mm" /><svg:rect x="68mm" y="140mm" width="4mm" height="4mm" /><svg:rect x="72mm" y="140mm" width="4mm" height="4mm" /><svg:rect x="104mm" y="140mm" width="4mm" height="4mm" /><svg:rect x="120mm" y="140mm" width="4mm" height="4mm" /><svg:rect x="124mm" y="140mm" width="4mm" height="4mm" /><svg:rect x="128mm" y="140mm" width="4mm" height="4mm" /><svg:rect x="132mm" y="140mm" width="4mm" height="4mm" /><svg:rect x="136mm" y="140mm" width="4mm" height="4mm" /><svg:rect x="16mm" y="144mm" width="4mm" height="4mm" /><svg:rect x="20mm" y="144mm" width="4mm" height="4mm" /><svg:rect x="24mm" y="144mm" width="4mm" height="4mm" /><svg:rect x="28mm" y="144mm" width="4mm" height="4mm" /><svg:rect x="32mm" y="144mm" width="4mm" height="4mm" /><svg:rect x="36mm" y="144mm" width="4mm" height="4mm" /><svg:rect x="40mm" y="144mm" width="4mm" height="4mm" /><svg:rect x="48mm" y="144mm" width="4mm" height="4mm" /><svg:rect x="52mm" y="144mm" width="4mm" height="4mm" /><svg:rect x="68mm" y="144mm" width="4mm" height="4mm" /><svg:rect x="76mm" y="144mm" width="4mm" height="4mm" /><svg:rect x="84mm" y="144mm" width="4mm" height="4mm" /><svg:rect x="96mm" y="144mm" width="4mm" height="4mm" /><svg:rect x="104mm" y="144mm" width="4mm" height="4mm" /><svg:rect x="108mm" y="144mm" width="4mm" height="4mm" /><svg:rect x="112mm" y="144mm" width="4mm" height="4mm" /><svg:rect x="116mm" y="144mm" width="4mm" height="4mm" /><svg:rect x="124mm" y="144mm" width="4mm" height="4mm" /><svg:rect x="140mm" y="144mm" width="4mm" height="4mm" /></svg>